<mxfile host="app.diagrams.net" agent="Mozilla/5.0 (Windows NT 10.0; Win64; x64) AppleWebKit/537.36 (KHTML, like Gecko) Chrome/141.0.0.0 Safari/537.36 Edg/141.0.0.0" version="28.2.8">
  <diagram name="Страница — 1" id="RKWbuhna6AHEA5-PSQf5">
    <mxGraphModel dx="565" dy="786" grid="1" gridSize="10" guides="1" tooltips="1" connect="1" arrows="1" fold="1" page="1" pageScale="1" pageWidth="827" pageHeight="1169" math="0" shadow="0">
      <root>
        <mxCell id="0" />
        <mxCell id="1" parent="0" />
        <mxCell id="6ur_eUY4bLG5nfG0MfKk-16" value="&lt;strong style=&quot;margin: 0px; padding: 0px; scrollbar-color: rgb(92, 114, 101) transparent; box-sizing: inherit; color: rgb(73, 73, 73); font-family: &amp;quot;Fira Sans&amp;quot;, serif; font-size: 16px; text-align: start; white-space-collapse: break-spaces; background-color: rgb(244, 244, 231);&quot;&gt;Студент&lt;/strong&gt;" style="swimlane;fontStyle=0;childLayout=stackLayout;horizontal=1;startSize=26;fillColor=none;horizontalStack=0;resizeParent=1;resizeParentMax=0;resizeLast=0;collapsible=1;marginBottom=0;whiteSpace=wrap;html=1;" vertex="1" parent="1">
          <mxGeometry x="274" y="120" width="176" height="170" as="geometry" />
        </mxCell>
        <mxCell id="6ur_eUY4bLG5nfG0MfKk-29" value="&lt;span style=&quot;color: rgb(73, 73, 73); font-family: &amp;quot;Fira Sans&amp;quot;, serif; font-size: 16px; white-space-collapse: break-spaces; background-color: rgb(244, 244, 231);&quot;&gt;ID студента&lt;/span&gt;" style="text;strokeColor=none;fillColor=none;align=left;verticalAlign=top;spacingLeft=4;spacingRight=4;overflow=hidden;rotatable=0;points=[[0,0.5],[1,0.5]];portConstraint=eastwest;whiteSpace=wrap;html=1;" vertex="1" parent="6ur_eUY4bLG5nfG0MfKk-16">
          <mxGeometry y="26" width="176" height="26" as="geometry" />
        </mxCell>
        <mxCell id="6ur_eUY4bLG5nfG0MfKk-18" value="&lt;ul style=&quot;margin: 0px 0px 14px 25px; padding: 0px; scrollbar-color: rgb(92, 114, 101) transparent; box-sizing: inherit; display: flex; flex-direction: column; color: rgb(73, 73, 73); font-family: &amp;quot;Fira Sans&amp;quot;, serif; font-size: 16px; white-space-collapse: break-spaces; background-color: rgb(244, 244, 231);&quot;&gt;&lt;li style=&quot;margin: 0px; padding: 0px; scrollbar-color: rgb(92, 114, 101) transparent; box-sizing: inherit;&quot;&gt;ФИО&lt;/li&gt;&lt;/ul&gt;" style="text;strokeColor=none;fillColor=none;align=left;verticalAlign=top;spacingLeft=4;spacingRight=4;overflow=hidden;rotatable=0;points=[[0,0.5],[1,0.5]];portConstraint=eastwest;whiteSpace=wrap;html=1;" vertex="1" parent="6ur_eUY4bLG5nfG0MfKk-16">
          <mxGeometry y="52" width="176" height="26" as="geometry" />
        </mxCell>
        <mxCell id="6ur_eUY4bLG5nfG0MfKk-19" value="&lt;ul style=&quot;margin: 0px 0px 14px 25px; padding: 0px; scrollbar-color: rgb(92, 114, 101) transparent; box-sizing: inherit; display: flex; flex-direction: column; color: rgb(73, 73, 73); font-family: &amp;quot;Fira Sans&amp;quot;, serif; font-size: 16px; white-space-collapse: break-spaces; background-color: rgb(244, 244, 231);&quot;&gt;&lt;li style=&quot;margin: 0px; padding: 0px; scrollbar-color: rgb(92, 114, 101) transparent; box-sizing: inherit;&quot;&gt;ID группы&lt;/li&gt;&lt;/ul&gt;" style="text;strokeColor=none;fillColor=none;align=left;verticalAlign=top;spacingLeft=4;spacingRight=4;overflow=hidden;rotatable=0;points=[[0,0.5],[1,0.5]];portConstraint=eastwest;whiteSpace=wrap;html=1;" vertex="1" parent="6ur_eUY4bLG5nfG0MfKk-16">
          <mxGeometry y="78" width="176" height="26" as="geometry" />
        </mxCell>
        <mxCell id="6ur_eUY4bLG5nfG0MfKk-21" value="&lt;ul style=&quot;margin: 0px 0px 14px 25px; padding: 0px; scrollbar-color: rgb(92, 114, 101) transparent; box-sizing: inherit; display: flex; flex-direction: column; color: rgb(73, 73, 73); font-family: &amp;quot;Fira Sans&amp;quot;, serif; font-size: 16px; white-space-collapse: break-spaces; background-color: rgb(244, 244, 231);&quot;&gt;&lt;li style=&quot;margin: 0px; padding: 0px; scrollbar-color: rgb(92, 114, 101) transparent; box-sizing: inherit;&quot;&gt;Дата поступления&lt;/li&gt;&lt;/ul&gt;" style="text;strokeColor=none;fillColor=none;align=left;verticalAlign=top;spacingLeft=4;spacingRight=4;overflow=hidden;rotatable=0;points=[[0,0.5],[1,0.5]];portConstraint=eastwest;whiteSpace=wrap;html=1;" vertex="1" parent="6ur_eUY4bLG5nfG0MfKk-16">
          <mxGeometry y="104" width="176" height="26" as="geometry" />
        </mxCell>
        <mxCell id="6ur_eUY4bLG5nfG0MfKk-22" value="&lt;ul style=&quot;margin: 0px 0px 14px 25px; padding: 0px; scrollbar-color: rgb(92, 114, 101) transparent; box-sizing: inherit; display: flex; flex-direction: column; color: rgb(73, 73, 73); font-family: &amp;quot;Fira Sans&amp;quot;, serif; font-size: 16px; white-space-collapse: break-spaces; background-color: rgb(244, 244, 231);&quot;&gt;&lt;li style=&quot;margin: 0px; padding: 0px; scrollbar-color: rgb(92, 114, 101) transparent; box-sizing: inherit;&quot;&gt;Форма обучения&lt;/li&gt;&lt;/ul&gt;" style="text;strokeColor=none;fillColor=none;align=left;verticalAlign=top;spacingLeft=4;spacingRight=4;overflow=hidden;rotatable=0;points=[[0,0.5],[1,0.5]];portConstraint=eastwest;whiteSpace=wrap;html=1;" vertex="1" parent="6ur_eUY4bLG5nfG0MfKk-16">
          <mxGeometry y="130" width="176" height="40" as="geometry" />
        </mxCell>
        <mxCell id="6ur_eUY4bLG5nfG0MfKk-23" value="&lt;strong style=&quot;margin: 0px; padding: 0px; scrollbar-color: rgb(92, 114, 101) transparent; box-sizing: inherit; color: rgb(73, 73, 73); font-family: &amp;quot;Fira Sans&amp;quot;, serif; font-size: 16px; text-align: start; white-space-collapse: break-spaces; background-color: rgb(244, 244, 231);&quot;&gt;Группа&lt;/strong&gt;" style="swimlane;fontStyle=0;childLayout=stackLayout;horizontal=1;startSize=26;fillColor=none;horizontalStack=0;resizeParent=1;resizeParentMax=0;resizeLast=0;collapsible=1;marginBottom=0;whiteSpace=wrap;html=1;" vertex="1" parent="1">
          <mxGeometry x="280" y="320" width="210" height="156" as="geometry" />
        </mxCell>
        <mxCell id="6ur_eUY4bLG5nfG0MfKk-24" value="&lt;ul style=&quot;margin: 0px 0px 14px 25px; padding: 0px; scrollbar-color: rgb(92, 114, 101) transparent; box-sizing: inherit; display: flex; flex-direction: column; color: rgb(73, 73, 73); font-family: &amp;quot;Fira Sans&amp;quot;, serif; font-size: 16px; white-space-collapse: break-spaces; background-color: rgb(244, 244, 231);&quot;&gt;&lt;li style=&quot;margin: 0px; padding: 0px; scrollbar-color: rgb(92, 114, 101) transparent; box-sizing: inherit;&quot;&gt;ID группы &lt;/li&gt;&lt;/ul&gt;" style="text;strokeColor=none;fillColor=none;align=left;verticalAlign=top;spacingLeft=4;spacingRight=4;overflow=hidden;rotatable=0;points=[[0,0.5],[1,0.5]];portConstraint=eastwest;whiteSpace=wrap;html=1;" vertex="1" parent="6ur_eUY4bLG5nfG0MfKk-23">
          <mxGeometry y="26" width="210" height="26" as="geometry" />
        </mxCell>
        <mxCell id="6ur_eUY4bLG5nfG0MfKk-25" value="&lt;ul style=&quot;margin: 0px 0px 14px 25px; padding: 0px; scrollbar-color: rgb(92, 114, 101) transparent; box-sizing: inherit; display: flex; flex-direction: column; color: rgb(73, 73, 73); font-family: &amp;quot;Fira Sans&amp;quot;, serif; font-size: 16px; white-space-collapse: break-spaces; background-color: rgb(244, 244, 231);&quot;&gt;&lt;li style=&quot;margin: 0px; padding: 0px; scrollbar-color: rgb(92, 114, 101) transparent; box-sizing: inherit;&quot;&gt;Название группы&lt;/li&gt;&lt;/ul&gt;" style="text;strokeColor=none;fillColor=none;align=left;verticalAlign=top;spacingLeft=4;spacingRight=4;overflow=hidden;rotatable=0;points=[[0,0.5],[1,0.5]];portConstraint=eastwest;whiteSpace=wrap;html=1;" vertex="1" parent="6ur_eUY4bLG5nfG0MfKk-23">
          <mxGeometry y="52" width="210" height="26" as="geometry" />
        </mxCell>
        <mxCell id="6ur_eUY4bLG5nfG0MfKk-26" value="&lt;ul style=&quot;margin: 0px 0px 14px 25px; padding: 0px; scrollbar-color: rgb(92, 114, 101) transparent; box-sizing: inherit; display: flex; flex-direction: column; color: rgb(73, 73, 73); font-family: &amp;quot;Fira Sans&amp;quot;, serif; font-size: 16px; white-space-collapse: break-spaces; background-color: rgb(244, 244, 231);&quot;&gt;&lt;li style=&quot;margin: 0px; padding: 0px; scrollbar-color: rgb(92, 114, 101) transparent; box-sizing: inherit;&quot;&gt;Факультет&lt;/li&gt;&lt;/ul&gt;" style="text;strokeColor=none;fillColor=none;align=left;verticalAlign=top;spacingLeft=4;spacingRight=4;overflow=hidden;rotatable=0;points=[[0,0.5],[1,0.5]];portConstraint=eastwest;whiteSpace=wrap;html=1;" vertex="1" parent="6ur_eUY4bLG5nfG0MfKk-23">
          <mxGeometry y="78" width="210" height="26" as="geometry" />
        </mxCell>
        <mxCell id="6ur_eUY4bLG5nfG0MfKk-33" value="&lt;ul style=&quot;margin: 0px 0px 14px 25px; padding: 0px; scrollbar-color: rgb(92, 114, 101) transparent; box-sizing: inherit; display: flex; flex-direction: column; color: rgb(73, 73, 73); font-family: &amp;quot;Fira Sans&amp;quot;, serif; font-size: 16px; white-space-collapse: break-spaces; background-color: rgb(244, 244, 231);&quot;&gt;&lt;li style=&quot;margin: 0px; padding: 0px; scrollbar-color: rgb(92, 114, 101) transparent; box-sizing: inherit;&quot;&gt;Курс&lt;/li&gt;&lt;/ul&gt;" style="text;strokeColor=none;fillColor=none;align=left;verticalAlign=top;spacingLeft=4;spacingRight=4;overflow=hidden;rotatable=0;points=[[0,0.5],[1,0.5]];portConstraint=eastwest;whiteSpace=wrap;html=1;" vertex="1" parent="6ur_eUY4bLG5nfG0MfKk-23">
          <mxGeometry y="104" width="210" height="26" as="geometry" />
        </mxCell>
        <mxCell id="6ur_eUY4bLG5nfG0MfKk-32" value="&lt;ul style=&quot;margin: 0px 0px 14px 25px; padding: 0px; scrollbar-color: rgb(92, 114, 101) transparent; box-sizing: inherit; display: flex; flex-direction: column; color: rgb(73, 73, 73); font-family: &amp;quot;Fira Sans&amp;quot;, serif; font-size: 16px; white-space-collapse: break-spaces; background-color: rgb(244, 244, 231);&quot;&gt;&lt;li style=&quot;margin: 0px; padding: 0px; scrollbar-color: rgb(92, 114, 101) transparent; box-sizing: inherit;&quot;&gt;Год набора&lt;/li&gt;&lt;/ul&gt;" style="text;strokeColor=none;fillColor=none;align=left;verticalAlign=top;spacingLeft=4;spacingRight=4;overflow=hidden;rotatable=0;points=[[0,0.5],[1,0.5]];portConstraint=eastwest;whiteSpace=wrap;html=1;" vertex="1" parent="6ur_eUY4bLG5nfG0MfKk-23">
          <mxGeometry y="130" width="210" height="26" as="geometry" />
        </mxCell>
        <mxCell id="6ur_eUY4bLG5nfG0MfKk-34" value="&lt;strong style=&quot;margin: 0px; padding: 0px; scrollbar-color: rgb(92, 114, 101) transparent; box-sizing: inherit; color: rgb(73, 73, 73); font-family: &amp;quot;Fira Sans&amp;quot;, serif; font-size: 16px; text-align: start; white-space-collapse: break-spaces; background-color: rgb(244, 244, 231);&quot;&gt;Предмет&lt;/strong&gt;" style="swimlane;fontStyle=0;childLayout=stackLayout;horizontal=1;startSize=26;fillColor=none;horizontalStack=0;resizeParent=1;resizeParentMax=0;resizeLast=0;collapsible=1;marginBottom=0;whiteSpace=wrap;html=1;" vertex="1" parent="1">
          <mxGeometry x="50" y="240" width="190" height="130" as="geometry" />
        </mxCell>
        <mxCell id="6ur_eUY4bLG5nfG0MfKk-35" value="&lt;span style=&quot;color: rgb(73, 73, 73); font-family: &amp;quot;Fira Sans&amp;quot;, serif; font-size: 16px; white-space-collapse: break-spaces; background-color: rgb(244, 244, 231);&quot;&gt;ID предмета&lt;/span&gt;" style="text;strokeColor=none;fillColor=none;align=left;verticalAlign=top;spacingLeft=4;spacingRight=4;overflow=hidden;rotatable=0;points=[[0,0.5],[1,0.5]];portConstraint=eastwest;whiteSpace=wrap;html=1;" vertex="1" parent="6ur_eUY4bLG5nfG0MfKk-34">
          <mxGeometry y="26" width="190" height="26" as="geometry" />
        </mxCell>
        <mxCell id="6ur_eUY4bLG5nfG0MfKk-36" value="&lt;ul style=&quot;margin: 0px 0px 14px 25px; padding: 0px; scrollbar-color: rgb(92, 114, 101) transparent; box-sizing: inherit; display: flex; flex-direction: column; color: rgb(73, 73, 73); font-family: &amp;quot;Fira Sans&amp;quot;, serif; font-size: 16px; white-space-collapse: break-spaces; background-color: rgb(244, 244, 231);&quot;&gt;&lt;li style=&quot;margin: 0px; padding: 0px; scrollbar-color: rgb(92, 114, 101) transparent; box-sizing: inherit;&quot;&gt;Название предмета&lt;/li&gt;&lt;/ul&gt;" style="text;strokeColor=none;fillColor=none;align=left;verticalAlign=top;spacingLeft=4;spacingRight=4;overflow=hidden;rotatable=0;points=[[0,0.5],[1,0.5]];portConstraint=eastwest;whiteSpace=wrap;html=1;" vertex="1" parent="6ur_eUY4bLG5nfG0MfKk-34">
          <mxGeometry y="52" width="190" height="26" as="geometry" />
        </mxCell>
        <mxCell id="6ur_eUY4bLG5nfG0MfKk-37" value="&lt;ul style=&quot;margin: 0px 0px 14px 25px; padding: 0px; scrollbar-color: rgb(92, 114, 101) transparent; box-sizing: inherit; display: flex; flex-direction: column; color: rgb(73, 73, 73); font-family: &amp;quot;Fira Sans&amp;quot;, serif; font-size: 16px; white-space-collapse: break-spaces; background-color: rgb(244, 244, 231);&quot;&gt;&lt;li style=&quot;margin: 0px; padding: 0px; scrollbar-color: rgb(92, 114, 101) transparent; box-sizing: inherit;&quot;&gt;Количество часов&lt;/li&gt;&lt;/ul&gt;" style="text;strokeColor=none;fillColor=none;align=left;verticalAlign=top;spacingLeft=4;spacingRight=4;overflow=hidden;rotatable=0;points=[[0,0.5],[1,0.5]];portConstraint=eastwest;whiteSpace=wrap;html=1;" vertex="1" parent="6ur_eUY4bLG5nfG0MfKk-34">
          <mxGeometry y="78" width="190" height="26" as="geometry" />
        </mxCell>
        <mxCell id="6ur_eUY4bLG5nfG0MfKk-44" value="&lt;span style=&quot;color: rgb(73, 73, 73); font-family: &amp;quot;Fira Sans&amp;quot;, serif; font-size: 16px; white-space-collapse: break-spaces; background-color: rgb(244, 244, 231);&quot;&gt;Форма контроля&lt;/span&gt;" style="text;strokeColor=none;fillColor=none;align=left;verticalAlign=top;spacingLeft=4;spacingRight=4;overflow=hidden;rotatable=0;points=[[0,0.5],[1,0.5]];portConstraint=eastwest;whiteSpace=wrap;html=1;" vertex="1" parent="6ur_eUY4bLG5nfG0MfKk-34">
          <mxGeometry y="104" width="190" height="26" as="geometry" />
        </mxCell>
        <mxCell id="6ur_eUY4bLG5nfG0MfKk-46" value="&lt;strong style=&quot;margin: 0px; padding: 0px; scrollbar-color: rgb(92, 114, 101) transparent; box-sizing: inherit; color: rgb(73, 73, 73); font-family: &amp;quot;Fira Sans&amp;quot;, serif; font-size: 16px; text-align: start; white-space-collapse: break-spaces; background-color: rgb(244, 244, 231);&quot;&gt;Оценка&lt;/strong&gt;" style="swimlane;fontStyle=0;childLayout=stackLayout;horizontal=1;startSize=26;fillColor=none;horizontalStack=0;resizeParent=1;resizeParentMax=0;resizeLast=0;collapsible=1;marginBottom=0;whiteSpace=wrap;html=1;" vertex="1" parent="1">
          <mxGeometry x="100" y="510" width="190" height="210" as="geometry" />
        </mxCell>
        <mxCell id="6ur_eUY4bLG5nfG0MfKk-47" value="&lt;span style=&quot;color: rgb(73, 73, 73); font-family: &amp;quot;Fira Sans&amp;quot;, serif; font-size: 16px; white-space-collapse: break-spaces; background-color: rgb(244, 244, 231);&quot;&gt;ID оценки&lt;/span&gt;" style="text;strokeColor=none;fillColor=none;align=left;verticalAlign=top;spacingLeft=4;spacingRight=4;overflow=hidden;rotatable=0;points=[[0,0.5],[1,0.5]];portConstraint=eastwest;whiteSpace=wrap;html=1;" vertex="1" parent="6ur_eUY4bLG5nfG0MfKk-46">
          <mxGeometry y="26" width="190" height="26" as="geometry" />
        </mxCell>
        <mxCell id="6ur_eUY4bLG5nfG0MfKk-48" value="&lt;span style=&quot;color: rgb(73, 73, 73); font-family: &amp;quot;Fira Sans&amp;quot;, serif; font-size: 16px; white-space-collapse: break-spaces; background-color: rgb(244, 244, 231);&quot;&gt;ID студента&lt;/span&gt;" style="text;strokeColor=none;fillColor=none;align=left;verticalAlign=top;spacingLeft=4;spacingRight=4;overflow=hidden;rotatable=0;points=[[0,0.5],[1,0.5]];portConstraint=eastwest;whiteSpace=wrap;html=1;" vertex="1" parent="6ur_eUY4bLG5nfG0MfKk-46">
          <mxGeometry y="52" width="190" height="26" as="geometry" />
        </mxCell>
        <mxCell id="6ur_eUY4bLG5nfG0MfKk-49" value="&lt;span style=&quot;color: rgb(73, 73, 73); font-family: &amp;quot;Fira Sans&amp;quot;, serif; font-size: 16px; white-space-collapse: break-spaces; background-color: rgb(244, 244, 231);&quot;&gt;ID предмета&lt;/span&gt;" style="text;strokeColor=none;fillColor=none;align=left;verticalAlign=top;spacingLeft=4;spacingRight=4;overflow=hidden;rotatable=0;points=[[0,0.5],[1,0.5]];portConstraint=eastwest;whiteSpace=wrap;html=1;" vertex="1" parent="6ur_eUY4bLG5nfG0MfKk-46">
          <mxGeometry y="78" width="190" height="26" as="geometry" />
        </mxCell>
        <mxCell id="6ur_eUY4bLG5nfG0MfKk-66" value="&lt;span style=&quot;color: rgb(73, 73, 73); font-family: &amp;quot;Fira Sans&amp;quot;, serif; font-size: 16px; white-space-collapse: break-spaces; background-color: rgb(244, 244, 231);&quot;&gt;Оценка&lt;/span&gt;" style="text;strokeColor=none;fillColor=none;align=left;verticalAlign=top;spacingLeft=4;spacingRight=4;overflow=hidden;rotatable=0;points=[[0,0.5],[1,0.5]];portConstraint=eastwest;whiteSpace=wrap;html=1;" vertex="1" parent="6ur_eUY4bLG5nfG0MfKk-46">
          <mxGeometry y="104" width="190" height="26" as="geometry" />
        </mxCell>
        <mxCell id="6ur_eUY4bLG5nfG0MfKk-65" value="&lt;ul style=&quot;margin: 0px 0px 14px 25px; padding: 0px; scrollbar-color: rgb(92, 114, 101) transparent; box-sizing: inherit; display: flex; flex-direction: column; color: rgb(73, 73, 73); font-family: &amp;quot;Fira Sans&amp;quot;, serif; font-size: 16px; white-space-collapse: break-spaces; background-color: rgb(244, 244, 231);&quot;&gt;&lt;li style=&quot;margin: 0px; padding: 0px; scrollbar-color: rgb(92, 114, 101) transparent; box-sizing: inherit;&quot;&gt;Дата получения оценки&lt;/li&gt;&lt;/ul&gt;" style="text;strokeColor=none;fillColor=none;align=left;verticalAlign=top;spacingLeft=4;spacingRight=4;overflow=hidden;rotatable=0;points=[[0,0.5],[1,0.5]];portConstraint=eastwest;whiteSpace=wrap;html=1;" vertex="1" parent="6ur_eUY4bLG5nfG0MfKk-46">
          <mxGeometry y="130" width="190" height="50" as="geometry" />
        </mxCell>
        <mxCell id="6ur_eUY4bLG5nfG0MfKk-67" value="&lt;span style=&quot;color: rgb(73, 73, 73); font-family: &amp;quot;Fira Sans&amp;quot;, serif; font-size: 16px; white-space-collapse: break-spaces; background-color: rgb(244, 244, 231);&quot;&gt;Тип оценки&lt;/span&gt;" style="text;strokeColor=none;fillColor=none;align=left;verticalAlign=top;spacingLeft=4;spacingRight=4;overflow=hidden;rotatable=0;points=[[0,0.5],[1,0.5]];portConstraint=eastwest;whiteSpace=wrap;html=1;" vertex="1" parent="6ur_eUY4bLG5nfG0MfKk-46">
          <mxGeometry y="180" width="190" height="30" as="geometry" />
        </mxCell>
        <mxCell id="6ur_eUY4bLG5nfG0MfKk-69" style="edgeStyle=orthogonalEdgeStyle;rounded=0;orthogonalLoop=1;jettySize=auto;html=1;entryX=0.005;entryY=0.769;entryDx=0;entryDy=0;entryPerimeter=0;" edge="1" parent="6ur_eUY4bLG5nfG0MfKk-46" source="6ur_eUY4bLG5nfG0MfKk-47" target="6ur_eUY4bLG5nfG0MfKk-66">
          <mxGeometry relative="1" as="geometry" />
        </mxCell>
        <mxCell id="6ur_eUY4bLG5nfG0MfKk-54" style="edgeStyle=orthogonalEdgeStyle;rounded=0;orthogonalLoop=1;jettySize=auto;html=1;entryX=0;entryY=0.5;entryDx=0;entryDy=0;" edge="1" parent="1" source="6ur_eUY4bLG5nfG0MfKk-48" target="6ur_eUY4bLG5nfG0MfKk-29">
          <mxGeometry relative="1" as="geometry">
            <Array as="points">
              <mxPoint x="330" y="575" />
              <mxPoint x="330" y="490" />
              <mxPoint x="254" y="490" />
              <mxPoint x="254" y="159" />
            </Array>
          </mxGeometry>
        </mxCell>
        <mxCell id="6ur_eUY4bLG5nfG0MfKk-64" style="edgeStyle=orthogonalEdgeStyle;rounded=0;orthogonalLoop=1;jettySize=auto;html=1;entryX=1;entryY=0.5;entryDx=0;entryDy=0;" edge="1" parent="1" source="6ur_eUY4bLG5nfG0MfKk-24" target="6ur_eUY4bLG5nfG0MfKk-19">
          <mxGeometry relative="1" as="geometry">
            <Array as="points">
              <mxPoint x="260" y="359" />
              <mxPoint x="260" y="300" />
              <mxPoint x="470" y="300" />
              <mxPoint x="470" y="211" />
            </Array>
          </mxGeometry>
        </mxCell>
        <mxCell id="6ur_eUY4bLG5nfG0MfKk-70" style="edgeStyle=orthogonalEdgeStyle;rounded=0;orthogonalLoop=1;jettySize=auto;html=1;entryX=0;entryY=0.5;entryDx=0;entryDy=0;" edge="1" parent="1" source="6ur_eUY4bLG5nfG0MfKk-49" target="6ur_eUY4bLG5nfG0MfKk-35">
          <mxGeometry relative="1" as="geometry">
            <mxPoint x="40" y="280" as="targetPoint" />
          </mxGeometry>
        </mxCell>
        <mxCell id="6ur_eUY4bLG5nfG0MfKk-71" value="&lt;strong style=&quot;margin: 0px; padding: 0px; scrollbar-color: rgb(92, 114, 101) transparent; box-sizing: inherit; color: rgb(73, 73, 73); font-family: &amp;quot;Fira Sans&amp;quot;, serif; font-size: 16px; text-align: start; white-space-collapse: break-spaces; background-color: rgb(244, 244, 231);&quot;&gt;Студент&lt;/strong&gt;" style="swimlane;fontStyle=0;childLayout=stackLayout;horizontal=1;startSize=26;fillColor=none;horizontalStack=0;resizeParent=1;resizeParentMax=0;resizeLast=0;collapsible=1;marginBottom=0;whiteSpace=wrap;html=1;" vertex="1" parent="1">
          <mxGeometry x="674" y="200" width="176" height="170" as="geometry" />
        </mxCell>
        <mxCell id="6ur_eUY4bLG5nfG0MfKk-72" value="&lt;span style=&quot;color: rgb(73, 73, 73); font-family: &amp;quot;Fira Sans&amp;quot;, serif; font-size: 16px; white-space-collapse: break-spaces; background-color: rgb(244, 244, 231);&quot;&gt;ID студента&lt;/span&gt;" style="text;strokeColor=none;fillColor=none;align=left;verticalAlign=top;spacingLeft=4;spacingRight=4;overflow=hidden;rotatable=0;points=[[0,0.5],[1,0.5]];portConstraint=eastwest;whiteSpace=wrap;html=1;" vertex="1" parent="6ur_eUY4bLG5nfG0MfKk-71">
          <mxGeometry y="26" width="176" height="26" as="geometry" />
        </mxCell>
        <mxCell id="6ur_eUY4bLG5nfG0MfKk-73" value="&lt;ul style=&quot;margin: 0px 0px 14px 25px; padding: 0px; scrollbar-color: rgb(92, 114, 101) transparent; box-sizing: inherit; display: flex; flex-direction: column; color: rgb(73, 73, 73); font-family: &amp;quot;Fira Sans&amp;quot;, serif; font-size: 16px; white-space-collapse: break-spaces; background-color: rgb(244, 244, 231);&quot;&gt;&lt;li style=&quot;margin: 0px; padding: 0px; scrollbar-color: rgb(92, 114, 101) transparent; box-sizing: inherit;&quot;&gt;ФИО&lt;/li&gt;&lt;/ul&gt;" style="text;strokeColor=none;fillColor=none;align=left;verticalAlign=top;spacingLeft=4;spacingRight=4;overflow=hidden;rotatable=0;points=[[0,0.5],[1,0.5]];portConstraint=eastwest;whiteSpace=wrap;html=1;" vertex="1" parent="6ur_eUY4bLG5nfG0MfKk-71">
          <mxGeometry y="52" width="176" height="26" as="geometry" />
        </mxCell>
        <mxCell id="6ur_eUY4bLG5nfG0MfKk-74" value="&lt;ul style=&quot;margin: 0px 0px 14px 25px; padding: 0px; scrollbar-color: rgb(92, 114, 101) transparent; box-sizing: inherit; display: flex; flex-direction: column; color: rgb(73, 73, 73); font-family: &amp;quot;Fira Sans&amp;quot;, serif; font-size: 16px; white-space-collapse: break-spaces; background-color: rgb(244, 244, 231);&quot;&gt;&lt;li style=&quot;margin: 0px; padding: 0px; scrollbar-color: rgb(92, 114, 101) transparent; box-sizing: inherit;&quot;&gt;ID группы&lt;/li&gt;&lt;/ul&gt;" style="text;strokeColor=none;fillColor=none;align=left;verticalAlign=top;spacingLeft=4;spacingRight=4;overflow=hidden;rotatable=0;points=[[0,0.5],[1,0.5]];portConstraint=eastwest;whiteSpace=wrap;html=1;" vertex="1" parent="6ur_eUY4bLG5nfG0MfKk-71">
          <mxGeometry y="78" width="176" height="26" as="geometry" />
        </mxCell>
        <mxCell id="6ur_eUY4bLG5nfG0MfKk-75" value="&lt;ul style=&quot;margin: 0px 0px 14px 25px; padding: 0px; scrollbar-color: rgb(92, 114, 101) transparent; box-sizing: inherit; display: flex; flex-direction: column; color: rgb(73, 73, 73); font-family: &amp;quot;Fira Sans&amp;quot;, serif; font-size: 16px; white-space-collapse: break-spaces; background-color: rgb(244, 244, 231);&quot;&gt;&lt;li style=&quot;margin: 0px; padding: 0px; scrollbar-color: rgb(92, 114, 101) transparent; box-sizing: inherit;&quot;&gt;Дата поступления&lt;/li&gt;&lt;/ul&gt;" style="text;strokeColor=none;fillColor=none;align=left;verticalAlign=top;spacingLeft=4;spacingRight=4;overflow=hidden;rotatable=0;points=[[0,0.5],[1,0.5]];portConstraint=eastwest;whiteSpace=wrap;html=1;" vertex="1" parent="6ur_eUY4bLG5nfG0MfKk-71">
          <mxGeometry y="104" width="176" height="26" as="geometry" />
        </mxCell>
        <mxCell id="6ur_eUY4bLG5nfG0MfKk-76" value="&lt;ul style=&quot;margin: 0px 0px 14px 25px; padding: 0px; scrollbar-color: rgb(92, 114, 101) transparent; box-sizing: inherit; display: flex; flex-direction: column; color: rgb(73, 73, 73); font-family: &amp;quot;Fira Sans&amp;quot;, serif; font-size: 16px; white-space-collapse: break-spaces; background-color: rgb(244, 244, 231);&quot;&gt;&lt;li style=&quot;margin: 0px; padding: 0px; scrollbar-color: rgb(92, 114, 101) transparent; box-sizing: inherit;&quot;&gt;Форма обучения&lt;/li&gt;&lt;/ul&gt;" style="text;strokeColor=none;fillColor=none;align=left;verticalAlign=top;spacingLeft=4;spacingRight=4;overflow=hidden;rotatable=0;points=[[0,0.5],[1,0.5]];portConstraint=eastwest;whiteSpace=wrap;html=1;" vertex="1" parent="6ur_eUY4bLG5nfG0MfKk-71">
          <mxGeometry y="130" width="176" height="40" as="geometry" />
        </mxCell>
        <mxCell id="6ur_eUY4bLG5nfG0MfKk-77" value="&lt;strong style=&quot;margin: 0px; padding: 0px; scrollbar-color: rgb(92, 114, 101) transparent; box-sizing: inherit; color: rgb(73, 73, 73); font-family: &amp;quot;Fira Sans&amp;quot;, serif; font-size: 16px; text-align: start; white-space-collapse: break-spaces; background-color: rgb(244, 244, 231);&quot;&gt;Группа&lt;/strong&gt;" style="swimlane;fontStyle=0;childLayout=stackLayout;horizontal=1;startSize=26;fillColor=none;horizontalStack=0;resizeParent=1;resizeParentMax=0;resizeLast=0;collapsible=1;marginBottom=0;whiteSpace=wrap;html=1;" vertex="1" parent="1">
          <mxGeometry x="680" y="400" width="210" height="156" as="geometry" />
        </mxCell>
        <mxCell id="6ur_eUY4bLG5nfG0MfKk-78" value="&lt;ul style=&quot;margin: 0px 0px 14px 25px; padding: 0px; scrollbar-color: rgb(92, 114, 101) transparent; box-sizing: inherit; display: flex; flex-direction: column; color: rgb(73, 73, 73); font-family: &amp;quot;Fira Sans&amp;quot;, serif; font-size: 16px; white-space-collapse: break-spaces; background-color: rgb(244, 244, 231);&quot;&gt;&lt;li style=&quot;margin: 0px; padding: 0px; scrollbar-color: rgb(92, 114, 101) transparent; box-sizing: inherit;&quot;&gt;ID группы &lt;/li&gt;&lt;/ul&gt;" style="text;strokeColor=none;fillColor=none;align=left;verticalAlign=top;spacingLeft=4;spacingRight=4;overflow=hidden;rotatable=0;points=[[0,0.5],[1,0.5]];portConstraint=eastwest;whiteSpace=wrap;html=1;" vertex="1" parent="6ur_eUY4bLG5nfG0MfKk-77">
          <mxGeometry y="26" width="210" height="26" as="geometry" />
        </mxCell>
        <mxCell id="6ur_eUY4bLG5nfG0MfKk-79" value="&lt;ul style=&quot;margin: 0px 0px 14px 25px; padding: 0px; scrollbar-color: rgb(92, 114, 101) transparent; box-sizing: inherit; display: flex; flex-direction: column; color: rgb(73, 73, 73); font-family: &amp;quot;Fira Sans&amp;quot;, serif; font-size: 16px; white-space-collapse: break-spaces; background-color: rgb(244, 244, 231);&quot;&gt;&lt;li style=&quot;margin: 0px; padding: 0px; scrollbar-color: rgb(92, 114, 101) transparent; box-sizing: inherit;&quot;&gt;Название группы&lt;/li&gt;&lt;/ul&gt;" style="text;strokeColor=none;fillColor=none;align=left;verticalAlign=top;spacingLeft=4;spacingRight=4;overflow=hidden;rotatable=0;points=[[0,0.5],[1,0.5]];portConstraint=eastwest;whiteSpace=wrap;html=1;" vertex="1" parent="6ur_eUY4bLG5nfG0MfKk-77">
          <mxGeometry y="52" width="210" height="26" as="geometry" />
        </mxCell>
        <mxCell id="6ur_eUY4bLG5nfG0MfKk-80" value="&lt;ul style=&quot;margin: 0px 0px 14px 25px; padding: 0px; scrollbar-color: rgb(92, 114, 101) transparent; box-sizing: inherit; display: flex; flex-direction: column; color: rgb(73, 73, 73); font-family: &amp;quot;Fira Sans&amp;quot;, serif; font-size: 16px; white-space-collapse: break-spaces; background-color: rgb(244, 244, 231);&quot;&gt;&lt;li style=&quot;margin: 0px; padding: 0px; scrollbar-color: rgb(92, 114, 101) transparent; box-sizing: inherit;&quot;&gt;Факультет&lt;/li&gt;&lt;/ul&gt;" style="text;strokeColor=none;fillColor=none;align=left;verticalAlign=top;spacingLeft=4;spacingRight=4;overflow=hidden;rotatable=0;points=[[0,0.5],[1,0.5]];portConstraint=eastwest;whiteSpace=wrap;html=1;" vertex="1" parent="6ur_eUY4bLG5nfG0MfKk-77">
          <mxGeometry y="78" width="210" height="26" as="geometry" />
        </mxCell>
        <mxCell id="6ur_eUY4bLG5nfG0MfKk-81" value="&lt;ul style=&quot;margin: 0px 0px 14px 25px; padding: 0px; scrollbar-color: rgb(92, 114, 101) transparent; box-sizing: inherit; display: flex; flex-direction: column; color: rgb(73, 73, 73); font-family: &amp;quot;Fira Sans&amp;quot;, serif; font-size: 16px; white-space-collapse: break-spaces; background-color: rgb(244, 244, 231);&quot;&gt;&lt;li style=&quot;margin: 0px; padding: 0px; scrollbar-color: rgb(92, 114, 101) transparent; box-sizing: inherit;&quot;&gt;Курс&lt;/li&gt;&lt;/ul&gt;" style="text;strokeColor=none;fillColor=none;align=left;verticalAlign=top;spacingLeft=4;spacingRight=4;overflow=hidden;rotatable=0;points=[[0,0.5],[1,0.5]];portConstraint=eastwest;whiteSpace=wrap;html=1;" vertex="1" parent="6ur_eUY4bLG5nfG0MfKk-77">
          <mxGeometry y="104" width="210" height="26" as="geometry" />
        </mxCell>
        <mxCell id="6ur_eUY4bLG5nfG0MfKk-82" value="&lt;ul style=&quot;margin: 0px 0px 14px 25px; padding: 0px; scrollbar-color: rgb(92, 114, 101) transparent; box-sizing: inherit; display: flex; flex-direction: column; color: rgb(73, 73, 73); font-family: &amp;quot;Fira Sans&amp;quot;, serif; font-size: 16px; white-space-collapse: break-spaces; background-color: rgb(244, 244, 231);&quot;&gt;&lt;li style=&quot;margin: 0px; padding: 0px; scrollbar-color: rgb(92, 114, 101) transparent; box-sizing: inherit;&quot;&gt;Год набора&lt;/li&gt;&lt;/ul&gt;" style="text;strokeColor=none;fillColor=none;align=left;verticalAlign=top;spacingLeft=4;spacingRight=4;overflow=hidden;rotatable=0;points=[[0,0.5],[1,0.5]];portConstraint=eastwest;whiteSpace=wrap;html=1;" vertex="1" parent="6ur_eUY4bLG5nfG0MfKk-77">
          <mxGeometry y="130" width="210" height="26" as="geometry" />
        </mxCell>
        <mxCell id="6ur_eUY4bLG5nfG0MfKk-83" value="&lt;strong style=&quot;margin: 0px; padding: 0px; scrollbar-color: rgb(92, 114, 101) transparent; box-sizing: inherit; color: rgb(73, 73, 73); font-family: &amp;quot;Fira Sans&amp;quot;, serif; font-size: 16px; text-align: start; white-space-collapse: break-spaces; background-color: rgb(244, 244, 231);&quot;&gt;Предмет&lt;/strong&gt;" style="swimlane;fontStyle=0;childLayout=stackLayout;horizontal=1;startSize=26;fillColor=none;horizontalStack=0;resizeParent=1;resizeParentMax=0;resizeLast=0;collapsible=1;marginBottom=0;whiteSpace=wrap;html=1;" vertex="1" parent="1">
          <mxGeometry x="450" y="320" width="190" height="130" as="geometry" />
        </mxCell>
        <mxCell id="6ur_eUY4bLG5nfG0MfKk-84" value="&lt;span style=&quot;color: rgb(73, 73, 73); font-family: &amp;quot;Fira Sans&amp;quot;, serif; font-size: 16px; white-space-collapse: break-spaces; background-color: rgb(244, 244, 231);&quot;&gt;ID предмета&lt;/span&gt;" style="text;strokeColor=none;fillColor=none;align=left;verticalAlign=top;spacingLeft=4;spacingRight=4;overflow=hidden;rotatable=0;points=[[0,0.5],[1,0.5]];portConstraint=eastwest;whiteSpace=wrap;html=1;" vertex="1" parent="6ur_eUY4bLG5nfG0MfKk-83">
          <mxGeometry y="26" width="190" height="26" as="geometry" />
        </mxCell>
        <mxCell id="6ur_eUY4bLG5nfG0MfKk-85" value="&lt;ul style=&quot;margin: 0px 0px 14px 25px; padding: 0px; scrollbar-color: rgb(92, 114, 101) transparent; box-sizing: inherit; display: flex; flex-direction: column; color: rgb(73, 73, 73); font-family: &amp;quot;Fira Sans&amp;quot;, serif; font-size: 16px; white-space-collapse: break-spaces; background-color: rgb(244, 244, 231);&quot;&gt;&lt;li style=&quot;margin: 0px; padding: 0px; scrollbar-color: rgb(92, 114, 101) transparent; box-sizing: inherit;&quot;&gt;Название предмета&lt;/li&gt;&lt;/ul&gt;" style="text;strokeColor=none;fillColor=none;align=left;verticalAlign=top;spacingLeft=4;spacingRight=4;overflow=hidden;rotatable=0;points=[[0,0.5],[1,0.5]];portConstraint=eastwest;whiteSpace=wrap;html=1;" vertex="1" parent="6ur_eUY4bLG5nfG0MfKk-83">
          <mxGeometry y="52" width="190" height="26" as="geometry" />
        </mxCell>
        <mxCell id="6ur_eUY4bLG5nfG0MfKk-86" value="&lt;ul style=&quot;margin: 0px 0px 14px 25px; padding: 0px; scrollbar-color: rgb(92, 114, 101) transparent; box-sizing: inherit; display: flex; flex-direction: column; color: rgb(73, 73, 73); font-family: &amp;quot;Fira Sans&amp;quot;, serif; font-size: 16px; white-space-collapse: break-spaces; background-color: rgb(244, 244, 231);&quot;&gt;&lt;li style=&quot;margin: 0px; padding: 0px; scrollbar-color: rgb(92, 114, 101) transparent; box-sizing: inherit;&quot;&gt;Количество часов&lt;/li&gt;&lt;/ul&gt;" style="text;strokeColor=none;fillColor=none;align=left;verticalAlign=top;spacingLeft=4;spacingRight=4;overflow=hidden;rotatable=0;points=[[0,0.5],[1,0.5]];portConstraint=eastwest;whiteSpace=wrap;html=1;" vertex="1" parent="6ur_eUY4bLG5nfG0MfKk-83">
          <mxGeometry y="78" width="190" height="26" as="geometry" />
        </mxCell>
        <mxCell id="6ur_eUY4bLG5nfG0MfKk-87" value="&lt;span style=&quot;color: rgb(73, 73, 73); font-family: &amp;quot;Fira Sans&amp;quot;, serif; font-size: 16px; white-space-collapse: break-spaces; background-color: rgb(244, 244, 231);&quot;&gt;Форма контроля&lt;/span&gt;" style="text;strokeColor=none;fillColor=none;align=left;verticalAlign=top;spacingLeft=4;spacingRight=4;overflow=hidden;rotatable=0;points=[[0,0.5],[1,0.5]];portConstraint=eastwest;whiteSpace=wrap;html=1;" vertex="1" parent="6ur_eUY4bLG5nfG0MfKk-83">
          <mxGeometry y="104" width="190" height="26" as="geometry" />
        </mxCell>
        <mxCell id="6ur_eUY4bLG5nfG0MfKk-88" value="&lt;strong style=&quot;margin: 0px; padding: 0px; scrollbar-color: rgb(92, 114, 101) transparent; box-sizing: inherit; color: rgb(73, 73, 73); font-family: &amp;quot;Fira Sans&amp;quot;, serif; font-size: 16px; text-align: start; white-space-collapse: break-spaces; background-color: rgb(244, 244, 231);&quot;&gt;Оценка&lt;/strong&gt;" style="swimlane;fontStyle=0;childLayout=stackLayout;horizontal=1;startSize=26;fillColor=none;horizontalStack=0;resizeParent=1;resizeParentMax=0;resizeLast=0;collapsible=1;marginBottom=0;whiteSpace=wrap;html=1;" vertex="1" parent="1">
          <mxGeometry x="500" y="590" width="190" height="210" as="geometry" />
        </mxCell>
        <mxCell id="6ur_eUY4bLG5nfG0MfKk-89" value="&lt;span style=&quot;color: rgb(73, 73, 73); font-family: &amp;quot;Fira Sans&amp;quot;, serif; font-size: 16px; white-space-collapse: break-spaces; background-color: rgb(244, 244, 231);&quot;&gt;ID оценки&lt;/span&gt;" style="text;strokeColor=none;fillColor=none;align=left;verticalAlign=top;spacingLeft=4;spacingRight=4;overflow=hidden;rotatable=0;points=[[0,0.5],[1,0.5]];portConstraint=eastwest;whiteSpace=wrap;html=1;" vertex="1" parent="6ur_eUY4bLG5nfG0MfKk-88">
          <mxGeometry y="26" width="190" height="26" as="geometry" />
        </mxCell>
        <mxCell id="6ur_eUY4bLG5nfG0MfKk-90" value="&lt;span style=&quot;color: rgb(73, 73, 73); font-family: &amp;quot;Fira Sans&amp;quot;, serif; font-size: 16px; white-space-collapse: break-spaces; background-color: rgb(244, 244, 231);&quot;&gt;ID студента&lt;/span&gt;" style="text;strokeColor=none;fillColor=none;align=left;verticalAlign=top;spacingLeft=4;spacingRight=4;overflow=hidden;rotatable=0;points=[[0,0.5],[1,0.5]];portConstraint=eastwest;whiteSpace=wrap;html=1;" vertex="1" parent="6ur_eUY4bLG5nfG0MfKk-88">
          <mxGeometry y="52" width="190" height="26" as="geometry" />
        </mxCell>
        <mxCell id="6ur_eUY4bLG5nfG0MfKk-91" value="&lt;span style=&quot;color: rgb(73, 73, 73); font-family: &amp;quot;Fira Sans&amp;quot;, serif; font-size: 16px; white-space-collapse: break-spaces; background-color: rgb(244, 244, 231);&quot;&gt;ID предмета&lt;/span&gt;" style="text;strokeColor=none;fillColor=none;align=left;verticalAlign=top;spacingLeft=4;spacingRight=4;overflow=hidden;rotatable=0;points=[[0,0.5],[1,0.5]];portConstraint=eastwest;whiteSpace=wrap;html=1;" vertex="1" parent="6ur_eUY4bLG5nfG0MfKk-88">
          <mxGeometry y="78" width="190" height="26" as="geometry" />
        </mxCell>
        <mxCell id="6ur_eUY4bLG5nfG0MfKk-92" value="&lt;span style=&quot;color: rgb(73, 73, 73); font-family: &amp;quot;Fira Sans&amp;quot;, serif; font-size: 16px; white-space-collapse: break-spaces; background-color: rgb(244, 244, 231);&quot;&gt;Оценка&lt;/span&gt;" style="text;strokeColor=none;fillColor=none;align=left;verticalAlign=top;spacingLeft=4;spacingRight=4;overflow=hidden;rotatable=0;points=[[0,0.5],[1,0.5]];portConstraint=eastwest;whiteSpace=wrap;html=1;" vertex="1" parent="6ur_eUY4bLG5nfG0MfKk-88">
          <mxGeometry y="104" width="190" height="26" as="geometry" />
        </mxCell>
        <mxCell id="6ur_eUY4bLG5nfG0MfKk-93" value="&lt;ul style=&quot;margin: 0px 0px 14px 25px; padding: 0px; scrollbar-color: rgb(92, 114, 101) transparent; box-sizing: inherit; display: flex; flex-direction: column; color: rgb(73, 73, 73); font-family: &amp;quot;Fira Sans&amp;quot;, serif; font-size: 16px; white-space-collapse: break-spaces; background-color: rgb(244, 244, 231);&quot;&gt;&lt;li style=&quot;margin: 0px; padding: 0px; scrollbar-color: rgb(92, 114, 101) transparent; box-sizing: inherit;&quot;&gt;Дата получения оценки&lt;/li&gt;&lt;/ul&gt;" style="text;strokeColor=none;fillColor=none;align=left;verticalAlign=top;spacingLeft=4;spacingRight=4;overflow=hidden;rotatable=0;points=[[0,0.5],[1,0.5]];portConstraint=eastwest;whiteSpace=wrap;html=1;" vertex="1" parent="6ur_eUY4bLG5nfG0MfKk-88">
          <mxGeometry y="130" width="190" height="50" as="geometry" />
        </mxCell>
        <mxCell id="6ur_eUY4bLG5nfG0MfKk-94" value="&lt;span style=&quot;color: rgb(73, 73, 73); font-family: &amp;quot;Fira Sans&amp;quot;, serif; font-size: 16px; white-space-collapse: break-spaces; background-color: rgb(244, 244, 231);&quot;&gt;Тип оценки&lt;/span&gt;" style="text;strokeColor=none;fillColor=none;align=left;verticalAlign=top;spacingLeft=4;spacingRight=4;overflow=hidden;rotatable=0;points=[[0,0.5],[1,0.5]];portConstraint=eastwest;whiteSpace=wrap;html=1;" vertex="1" parent="6ur_eUY4bLG5nfG0MfKk-88">
          <mxGeometry y="180" width="190" height="30" as="geometry" />
        </mxCell>
        <mxCell id="6ur_eUY4bLG5nfG0MfKk-95" style="edgeStyle=orthogonalEdgeStyle;rounded=0;orthogonalLoop=1;jettySize=auto;html=1;entryX=0.005;entryY=0.769;entryDx=0;entryDy=0;entryPerimeter=0;" edge="1" parent="6ur_eUY4bLG5nfG0MfKk-88" source="6ur_eUY4bLG5nfG0MfKk-89" target="6ur_eUY4bLG5nfG0MfKk-92">
          <mxGeometry relative="1" as="geometry" />
        </mxCell>
        <mxCell id="6ur_eUY4bLG5nfG0MfKk-96" style="edgeStyle=orthogonalEdgeStyle;rounded=0;orthogonalLoop=1;jettySize=auto;html=1;entryX=0;entryY=0.5;entryDx=0;entryDy=0;" edge="1" parent="1" source="6ur_eUY4bLG5nfG0MfKk-90" target="6ur_eUY4bLG5nfG0MfKk-72">
          <mxGeometry relative="1" as="geometry">
            <Array as="points">
              <mxPoint x="730" y="655" />
              <mxPoint x="730" y="570" />
              <mxPoint x="654" y="570" />
              <mxPoint x="654" y="239" />
            </Array>
          </mxGeometry>
        </mxCell>
        <mxCell id="6ur_eUY4bLG5nfG0MfKk-97" style="edgeStyle=orthogonalEdgeStyle;rounded=0;orthogonalLoop=1;jettySize=auto;html=1;entryX=1;entryY=0.5;entryDx=0;entryDy=0;" edge="1" parent="1" source="6ur_eUY4bLG5nfG0MfKk-78" target="6ur_eUY4bLG5nfG0MfKk-74">
          <mxGeometry relative="1" as="geometry">
            <Array as="points">
              <mxPoint x="660" y="439" />
              <mxPoint x="660" y="380" />
              <mxPoint x="870" y="380" />
              <mxPoint x="870" y="291" />
            </Array>
          </mxGeometry>
        </mxCell>
        <mxCell id="6ur_eUY4bLG5nfG0MfKk-98" style="edgeStyle=orthogonalEdgeStyle;rounded=0;orthogonalLoop=1;jettySize=auto;html=1;entryX=0;entryY=0.5;entryDx=0;entryDy=0;" edge="1" parent="1" source="6ur_eUY4bLG5nfG0MfKk-91" target="6ur_eUY4bLG5nfG0MfKk-84">
          <mxGeometry relative="1" as="geometry">
            <mxPoint x="440" y="360" as="targetPoint" />
          </mxGeometry>
        </mxCell>
        <mxCell id="6ur_eUY4bLG5nfG0MfKk-99" value="&lt;strong style=&quot;margin: 0px; padding: 0px; scrollbar-color: rgb(92, 114, 101) transparent; box-sizing: inherit; color: rgb(73, 73, 73); font-family: &amp;quot;Fira Sans&amp;quot;, serif; font-size: 16px; text-align: start; white-space-collapse: break-spaces; background-color: rgb(244, 244, 231);&quot;&gt;Студент&lt;/strong&gt;" style="swimlane;fontStyle=0;childLayout=stackLayout;horizontal=1;startSize=26;fillColor=none;horizontalStack=0;resizeParent=1;resizeParentMax=0;resizeLast=0;collapsible=1;marginBottom=0;whiteSpace=wrap;html=1;" vertex="1" parent="1">
          <mxGeometry x="314" y="310" width="176" height="144" as="geometry" />
        </mxCell>
        <mxCell id="6ur_eUY4bLG5nfG0MfKk-100" value="&lt;span style=&quot;color: rgb(73, 73, 73); font-family: &amp;quot;Fira Sans&amp;quot;, serif; font-size: 16px; white-space-collapse: break-spaces; background-color: rgb(244, 244, 231);&quot;&gt;ID студента&lt;/span&gt;" style="text;strokeColor=none;fillColor=none;align=left;verticalAlign=top;spacingLeft=4;spacingRight=4;overflow=hidden;rotatable=0;points=[[0,0.5],[1,0.5]];portConstraint=eastwest;whiteSpace=wrap;html=1;" vertex="1" parent="6ur_eUY4bLG5nfG0MfKk-99">
          <mxGeometry y="26" width="176" height="26" as="geometry" />
        </mxCell>
        <mxCell id="6ur_eUY4bLG5nfG0MfKk-101" value="&lt;ul style=&quot;margin: 0px 0px 14px 25px; padding: 0px; scrollbar-color: rgb(92, 114, 101) transparent; box-sizing: inherit; display: flex; flex-direction: column; color: rgb(73, 73, 73); font-family: &amp;quot;Fira Sans&amp;quot;, serif; font-size: 16px; white-space-collapse: break-spaces; background-color: rgb(244, 244, 231);&quot;&gt;&lt;li style=&quot;margin: 0px; padding: 0px; scrollbar-color: rgb(92, 114, 101) transparent; box-sizing: inherit;&quot;&gt;ФИО&lt;/li&gt;&lt;/ul&gt;" style="text;strokeColor=none;fillColor=none;align=left;verticalAlign=top;spacingLeft=4;spacingRight=4;overflow=hidden;rotatable=0;points=[[0,0.5],[1,0.5]];portConstraint=eastwest;whiteSpace=wrap;html=1;" vertex="1" parent="6ur_eUY4bLG5nfG0MfKk-99">
          <mxGeometry y="52" width="176" height="26" as="geometry" />
        </mxCell>
        <mxCell id="6ur_eUY4bLG5nfG0MfKk-103" value="&lt;ul style=&quot;margin: 0px 0px 14px 25px; padding: 0px; scrollbar-color: rgb(92, 114, 101) transparent; box-sizing: inherit; display: flex; flex-direction: column; color: rgb(73, 73, 73); font-family: &amp;quot;Fira Sans&amp;quot;, serif; font-size: 16px; white-space-collapse: break-spaces; background-color: rgb(244, 244, 231);&quot;&gt;&lt;li style=&quot;margin: 0px; padding: 0px; scrollbar-color: rgb(92, 114, 101) transparent; box-sizing: inherit;&quot;&gt;Дата поступления&lt;/li&gt;&lt;/ul&gt;" style="text;strokeColor=none;fillColor=none;align=left;verticalAlign=top;spacingLeft=4;spacingRight=4;overflow=hidden;rotatable=0;points=[[0,0.5],[1,0.5]];portConstraint=eastwest;whiteSpace=wrap;html=1;" vertex="1" parent="6ur_eUY4bLG5nfG0MfKk-99">
          <mxGeometry y="78" width="176" height="26" as="geometry" />
        </mxCell>
        <mxCell id="6ur_eUY4bLG5nfG0MfKk-104" value="&lt;ul style=&quot;margin: 0px 0px 14px 25px; padding: 0px; scrollbar-color: rgb(92, 114, 101) transparent; box-sizing: inherit; display: flex; flex-direction: column; color: rgb(73, 73, 73); font-family: &amp;quot;Fira Sans&amp;quot;, serif; font-size: 16px; white-space-collapse: break-spaces; background-color: rgb(244, 244, 231);&quot;&gt;&lt;li style=&quot;margin: 0px; padding: 0px; scrollbar-color: rgb(92, 114, 101) transparent; box-sizing: inherit;&quot;&gt;Форма обучения&lt;/li&gt;&lt;/ul&gt;" style="text;strokeColor=none;fillColor=none;align=left;verticalAlign=top;spacingLeft=4;spacingRight=4;overflow=hidden;rotatable=0;points=[[0,0.5],[1,0.5]];portConstraint=eastwest;whiteSpace=wrap;html=1;" vertex="1" parent="6ur_eUY4bLG5nfG0MfKk-99">
          <mxGeometry y="104" width="176" height="40" as="geometry" />
        </mxCell>
        <mxCell id="6ur_eUY4bLG5nfG0MfKk-105" value="&lt;strong style=&quot;margin: 0px; padding: 0px; scrollbar-color: rgb(92, 114, 101) transparent; box-sizing: inherit; color: rgb(73, 73, 73); font-family: &amp;quot;Fira Sans&amp;quot;, serif; font-size: 16px; text-align: start; white-space-collapse: break-spaces; background-color: rgb(244, 244, 231);&quot;&gt;Группа&lt;/strong&gt;" style="swimlane;fontStyle=0;childLayout=stackLayout;horizontal=1;startSize=26;fillColor=none;horizontalStack=0;resizeParent=1;resizeParentMax=0;resizeLast=0;collapsible=1;marginBottom=0;whiteSpace=wrap;html=1;" vertex="1" parent="1">
          <mxGeometry x="320" y="510" width="210" height="156" as="geometry" />
        </mxCell>
        <mxCell id="6ur_eUY4bLG5nfG0MfKk-106" value="&lt;ul style=&quot;margin: 0px 0px 14px 25px; padding: 0px; scrollbar-color: rgb(92, 114, 101) transparent; box-sizing: inherit; display: flex; flex-direction: column; color: rgb(73, 73, 73); font-family: &amp;quot;Fira Sans&amp;quot;, serif; font-size: 16px; white-space-collapse: break-spaces; background-color: rgb(244, 244, 231);&quot;&gt;&lt;li style=&quot;margin: 0px; padding: 0px; scrollbar-color: rgb(92, 114, 101) transparent; box-sizing: inherit;&quot;&gt;ID группы &lt;/li&gt;&lt;/ul&gt;" style="text;strokeColor=none;fillColor=none;align=left;verticalAlign=top;spacingLeft=4;spacingRight=4;overflow=hidden;rotatable=0;points=[[0,0.5],[1,0.5]];portConstraint=eastwest;whiteSpace=wrap;html=1;" vertex="1" parent="6ur_eUY4bLG5nfG0MfKk-105">
          <mxGeometry y="26" width="210" height="26" as="geometry" />
        </mxCell>
        <mxCell id="6ur_eUY4bLG5nfG0MfKk-107" value="&lt;ul style=&quot;margin: 0px 0px 14px 25px; padding: 0px; scrollbar-color: rgb(92, 114, 101) transparent; box-sizing: inherit; display: flex; flex-direction: column; color: rgb(73, 73, 73); font-family: &amp;quot;Fira Sans&amp;quot;, serif; font-size: 16px; white-space-collapse: break-spaces; background-color: rgb(244, 244, 231);&quot;&gt;&lt;li style=&quot;margin: 0px; padding: 0px; scrollbar-color: rgb(92, 114, 101) transparent; box-sizing: inherit;&quot;&gt;Название группы&lt;/li&gt;&lt;/ul&gt;" style="text;strokeColor=none;fillColor=none;align=left;verticalAlign=top;spacingLeft=4;spacingRight=4;overflow=hidden;rotatable=0;points=[[0,0.5],[1,0.5]];portConstraint=eastwest;whiteSpace=wrap;html=1;" vertex="1" parent="6ur_eUY4bLG5nfG0MfKk-105">
          <mxGeometry y="52" width="210" height="26" as="geometry" />
        </mxCell>
        <mxCell id="6ur_eUY4bLG5nfG0MfKk-108" value="&lt;ul style=&quot;margin: 0px 0px 14px 25px; padding: 0px; scrollbar-color: rgb(92, 114, 101) transparent; box-sizing: inherit; display: flex; flex-direction: column; color: rgb(73, 73, 73); font-family: &amp;quot;Fira Sans&amp;quot;, serif; font-size: 16px; white-space-collapse: break-spaces; background-color: rgb(244, 244, 231);&quot;&gt;&lt;li style=&quot;margin: 0px; padding: 0px; scrollbar-color: rgb(92, 114, 101) transparent; box-sizing: inherit;&quot;&gt;Факультет&lt;/li&gt;&lt;/ul&gt;" style="text;strokeColor=none;fillColor=none;align=left;verticalAlign=top;spacingLeft=4;spacingRight=4;overflow=hidden;rotatable=0;points=[[0,0.5],[1,0.5]];portConstraint=eastwest;whiteSpace=wrap;html=1;" vertex="1" parent="6ur_eUY4bLG5nfG0MfKk-105">
          <mxGeometry y="78" width="210" height="26" as="geometry" />
        </mxCell>
        <mxCell id="6ur_eUY4bLG5nfG0MfKk-109" value="&lt;ul style=&quot;margin: 0px 0px 14px 25px; padding: 0px; scrollbar-color: rgb(92, 114, 101) transparent; box-sizing: inherit; display: flex; flex-direction: column; color: rgb(73, 73, 73); font-family: &amp;quot;Fira Sans&amp;quot;, serif; font-size: 16px; white-space-collapse: break-spaces; background-color: rgb(244, 244, 231);&quot;&gt;&lt;li style=&quot;margin: 0px; padding: 0px; scrollbar-color: rgb(92, 114, 101) transparent; box-sizing: inherit;&quot;&gt;Курс&lt;/li&gt;&lt;/ul&gt;" style="text;strokeColor=none;fillColor=none;align=left;verticalAlign=top;spacingLeft=4;spacingRight=4;overflow=hidden;rotatable=0;points=[[0,0.5],[1,0.5]];portConstraint=eastwest;whiteSpace=wrap;html=1;" vertex="1" parent="6ur_eUY4bLG5nfG0MfKk-105">
          <mxGeometry y="104" width="210" height="26" as="geometry" />
        </mxCell>
        <mxCell id="6ur_eUY4bLG5nfG0MfKk-110" value="&lt;ul style=&quot;margin: 0px 0px 14px 25px; padding: 0px; scrollbar-color: rgb(92, 114, 101) transparent; box-sizing: inherit; display: flex; flex-direction: column; color: rgb(73, 73, 73); font-family: &amp;quot;Fira Sans&amp;quot;, serif; font-size: 16px; white-space-collapse: break-spaces; background-color: rgb(244, 244, 231);&quot;&gt;&lt;li style=&quot;margin: 0px; padding: 0px; scrollbar-color: rgb(92, 114, 101) transparent; box-sizing: inherit;&quot;&gt;Год набора&lt;/li&gt;&lt;/ul&gt;" style="text;strokeColor=none;fillColor=none;align=left;verticalAlign=top;spacingLeft=4;spacingRight=4;overflow=hidden;rotatable=0;points=[[0,0.5],[1,0.5]];portConstraint=eastwest;whiteSpace=wrap;html=1;" vertex="1" parent="6ur_eUY4bLG5nfG0MfKk-105">
          <mxGeometry y="130" width="210" height="26" as="geometry" />
        </mxCell>
        <mxCell id="6ur_eUY4bLG5nfG0MfKk-111" value="&lt;strong style=&quot;margin: 0px; padding: 0px; scrollbar-color: rgb(92, 114, 101) transparent; box-sizing: inherit; color: rgb(73, 73, 73); font-family: &amp;quot;Fira Sans&amp;quot;, serif; font-size: 16px; text-align: start; white-space-collapse: break-spaces; background-color: rgb(244, 244, 231);&quot;&gt;Предмет&lt;/strong&gt;" style="swimlane;fontStyle=0;childLayout=stackLayout;horizontal=1;startSize=26;fillColor=none;horizontalStack=0;resizeParent=1;resizeParentMax=0;resizeLast=0;collapsible=1;marginBottom=0;whiteSpace=wrap;html=1;" vertex="1" parent="1">
          <mxGeometry x="90" y="430" width="190" height="130" as="geometry" />
        </mxCell>
        <mxCell id="6ur_eUY4bLG5nfG0MfKk-112" value="&lt;span style=&quot;color: rgb(73, 73, 73); font-family: &amp;quot;Fira Sans&amp;quot;, serif; font-size: 16px; white-space-collapse: break-spaces; background-color: rgb(244, 244, 231);&quot;&gt;ID предмета&lt;/span&gt;" style="text;strokeColor=none;fillColor=none;align=left;verticalAlign=top;spacingLeft=4;spacingRight=4;overflow=hidden;rotatable=0;points=[[0,0.5],[1,0.5]];portConstraint=eastwest;whiteSpace=wrap;html=1;" vertex="1" parent="6ur_eUY4bLG5nfG0MfKk-111">
          <mxGeometry y="26" width="190" height="26" as="geometry" />
        </mxCell>
        <mxCell id="6ur_eUY4bLG5nfG0MfKk-113" value="&lt;ul style=&quot;margin: 0px 0px 14px 25px; padding: 0px; scrollbar-color: rgb(92, 114, 101) transparent; box-sizing: inherit; display: flex; flex-direction: column; color: rgb(73, 73, 73); font-family: &amp;quot;Fira Sans&amp;quot;, serif; font-size: 16px; white-space-collapse: break-spaces; background-color: rgb(244, 244, 231);&quot;&gt;&lt;li style=&quot;margin: 0px; padding: 0px; scrollbar-color: rgb(92, 114, 101) transparent; box-sizing: inherit;&quot;&gt;Название предмета&lt;/li&gt;&lt;/ul&gt;" style="text;strokeColor=none;fillColor=none;align=left;verticalAlign=top;spacingLeft=4;spacingRight=4;overflow=hidden;rotatable=0;points=[[0,0.5],[1,0.5]];portConstraint=eastwest;whiteSpace=wrap;html=1;" vertex="1" parent="6ur_eUY4bLG5nfG0MfKk-111">
          <mxGeometry y="52" width="190" height="26" as="geometry" />
        </mxCell>
        <mxCell id="6ur_eUY4bLG5nfG0MfKk-114" value="&lt;ul style=&quot;margin: 0px 0px 14px 25px; padding: 0px; scrollbar-color: rgb(92, 114, 101) transparent; box-sizing: inherit; display: flex; flex-direction: column; color: rgb(73, 73, 73); font-family: &amp;quot;Fira Sans&amp;quot;, serif; font-size: 16px; white-space-collapse: break-spaces; background-color: rgb(244, 244, 231);&quot;&gt;&lt;li style=&quot;margin: 0px; padding: 0px; scrollbar-color: rgb(92, 114, 101) transparent; box-sizing: inherit;&quot;&gt;Количество часов&lt;/li&gt;&lt;/ul&gt;" style="text;strokeColor=none;fillColor=none;align=left;verticalAlign=top;spacingLeft=4;spacingRight=4;overflow=hidden;rotatable=0;points=[[0,0.5],[1,0.5]];portConstraint=eastwest;whiteSpace=wrap;html=1;" vertex="1" parent="6ur_eUY4bLG5nfG0MfKk-111">
          <mxGeometry y="78" width="190" height="26" as="geometry" />
        </mxCell>
        <mxCell id="6ur_eUY4bLG5nfG0MfKk-115" value="&lt;span style=&quot;color: rgb(73, 73, 73); font-family: &amp;quot;Fira Sans&amp;quot;, serif; font-size: 16px; white-space-collapse: break-spaces; background-color: rgb(244, 244, 231);&quot;&gt;Форма контроля&lt;/span&gt;" style="text;strokeColor=none;fillColor=none;align=left;verticalAlign=top;spacingLeft=4;spacingRight=4;overflow=hidden;rotatable=0;points=[[0,0.5],[1,0.5]];portConstraint=eastwest;whiteSpace=wrap;html=1;" vertex="1" parent="6ur_eUY4bLG5nfG0MfKk-111">
          <mxGeometry y="104" width="190" height="26" as="geometry" />
        </mxCell>
        <mxCell id="6ur_eUY4bLG5nfG0MfKk-116" value="&lt;strong style=&quot;margin: 0px; padding: 0px; scrollbar-color: rgb(92, 114, 101) transparent; box-sizing: inherit; color: rgb(73, 73, 73); font-family: &amp;quot;Fira Sans&amp;quot;, serif; font-size: 16px; text-align: start; white-space-collapse: break-spaces; background-color: rgb(244, 244, 231);&quot;&gt;Оценка&lt;/strong&gt;" style="swimlane;fontStyle=0;childLayout=stackLayout;horizontal=1;startSize=26;fillColor=none;horizontalStack=0;resizeParent=1;resizeParentMax=0;resizeLast=0;collapsible=1;marginBottom=0;whiteSpace=wrap;html=1;" vertex="1" parent="1">
          <mxGeometry x="140" y="700" width="190" height="210" as="geometry" />
        </mxCell>
        <mxCell id="6ur_eUY4bLG5nfG0MfKk-117" value="&lt;span style=&quot;color: rgb(73, 73, 73); font-family: &amp;quot;Fira Sans&amp;quot;, serif; font-size: 16px; white-space-collapse: break-spaces; background-color: rgb(244, 244, 231);&quot;&gt;ID оценки&lt;/span&gt;" style="text;strokeColor=none;fillColor=none;align=left;verticalAlign=top;spacingLeft=4;spacingRight=4;overflow=hidden;rotatable=0;points=[[0,0.5],[1,0.5]];portConstraint=eastwest;whiteSpace=wrap;html=1;" vertex="1" parent="6ur_eUY4bLG5nfG0MfKk-116">
          <mxGeometry y="26" width="190" height="26" as="geometry" />
        </mxCell>
        <mxCell id="6ur_eUY4bLG5nfG0MfKk-118" value="&lt;span style=&quot;color: rgb(73, 73, 73); font-family: &amp;quot;Fira Sans&amp;quot;, serif; font-size: 16px; white-space-collapse: break-spaces; background-color: rgb(244, 244, 231);&quot;&gt;ID студента&lt;/span&gt;" style="text;strokeColor=none;fillColor=none;align=left;verticalAlign=top;spacingLeft=4;spacingRight=4;overflow=hidden;rotatable=0;points=[[0,0.5],[1,0.5]];portConstraint=eastwest;whiteSpace=wrap;html=1;" vertex="1" parent="6ur_eUY4bLG5nfG0MfKk-116">
          <mxGeometry y="52" width="190" height="26" as="geometry" />
        </mxCell>
        <mxCell id="6ur_eUY4bLG5nfG0MfKk-119" value="&lt;span style=&quot;color: rgb(73, 73, 73); font-family: &amp;quot;Fira Sans&amp;quot;, serif; font-size: 16px; white-space-collapse: break-spaces; background-color: rgb(244, 244, 231);&quot;&gt;ID предмета&lt;/span&gt;" style="text;strokeColor=none;fillColor=none;align=left;verticalAlign=top;spacingLeft=4;spacingRight=4;overflow=hidden;rotatable=0;points=[[0,0.5],[1,0.5]];portConstraint=eastwest;whiteSpace=wrap;html=1;" vertex="1" parent="6ur_eUY4bLG5nfG0MfKk-116">
          <mxGeometry y="78" width="190" height="26" as="geometry" />
        </mxCell>
        <mxCell id="6ur_eUY4bLG5nfG0MfKk-120" value="&lt;span style=&quot;color: rgb(73, 73, 73); font-family: &amp;quot;Fira Sans&amp;quot;, serif; font-size: 16px; white-space-collapse: break-spaces; background-color: rgb(244, 244, 231);&quot;&gt;Оценка&lt;/span&gt;" style="text;strokeColor=none;fillColor=none;align=left;verticalAlign=top;spacingLeft=4;spacingRight=4;overflow=hidden;rotatable=0;points=[[0,0.5],[1,0.5]];portConstraint=eastwest;whiteSpace=wrap;html=1;" vertex="1" parent="6ur_eUY4bLG5nfG0MfKk-116">
          <mxGeometry y="104" width="190" height="26" as="geometry" />
        </mxCell>
        <mxCell id="6ur_eUY4bLG5nfG0MfKk-121" value="&lt;ul style=&quot;margin: 0px 0px 14px 25px; padding: 0px; scrollbar-color: rgb(92, 114, 101) transparent; box-sizing: inherit; display: flex; flex-direction: column; color: rgb(73, 73, 73); font-family: &amp;quot;Fira Sans&amp;quot;, serif; font-size: 16px; white-space-collapse: break-spaces; background-color: rgb(244, 244, 231);&quot;&gt;&lt;li style=&quot;margin: 0px; padding: 0px; scrollbar-color: rgb(92, 114, 101) transparent; box-sizing: inherit;&quot;&gt;Дата получения оценки&lt;/li&gt;&lt;/ul&gt;" style="text;strokeColor=none;fillColor=none;align=left;verticalAlign=top;spacingLeft=4;spacingRight=4;overflow=hidden;rotatable=0;points=[[0,0.5],[1,0.5]];portConstraint=eastwest;whiteSpace=wrap;html=1;" vertex="1" parent="6ur_eUY4bLG5nfG0MfKk-116">
          <mxGeometry y="130" width="190" height="50" as="geometry" />
        </mxCell>
        <mxCell id="6ur_eUY4bLG5nfG0MfKk-122" value="&lt;span style=&quot;color: rgb(73, 73, 73); font-family: &amp;quot;Fira Sans&amp;quot;, serif; font-size: 16px; white-space-collapse: break-spaces; background-color: rgb(244, 244, 231);&quot;&gt;Тип оценки&lt;/span&gt;" style="text;strokeColor=none;fillColor=none;align=left;verticalAlign=top;spacingLeft=4;spacingRight=4;overflow=hidden;rotatable=0;points=[[0,0.5],[1,0.5]];portConstraint=eastwest;whiteSpace=wrap;html=1;" vertex="1" parent="6ur_eUY4bLG5nfG0MfKk-116">
          <mxGeometry y="180" width="190" height="30" as="geometry" />
        </mxCell>
        <mxCell id="6ur_eUY4bLG5nfG0MfKk-123" style="edgeStyle=orthogonalEdgeStyle;rounded=0;orthogonalLoop=1;jettySize=auto;html=1;entryX=0.005;entryY=0.769;entryDx=0;entryDy=0;entryPerimeter=0;" edge="1" parent="6ur_eUY4bLG5nfG0MfKk-116" source="6ur_eUY4bLG5nfG0MfKk-117" target="6ur_eUY4bLG5nfG0MfKk-120">
          <mxGeometry relative="1" as="geometry" />
        </mxCell>
        <mxCell id="6ur_eUY4bLG5nfG0MfKk-124" style="edgeStyle=orthogonalEdgeStyle;rounded=0;orthogonalLoop=1;jettySize=auto;html=1;entryX=0;entryY=0.5;entryDx=0;entryDy=0;" edge="1" parent="1" source="6ur_eUY4bLG5nfG0MfKk-118" target="6ur_eUY4bLG5nfG0MfKk-100">
          <mxGeometry relative="1" as="geometry">
            <Array as="points">
              <mxPoint x="370" y="765" />
              <mxPoint x="370" y="680" />
              <mxPoint x="294" y="680" />
              <mxPoint x="294" y="349" />
            </Array>
          </mxGeometry>
        </mxCell>
        <mxCell id="6ur_eUY4bLG5nfG0MfKk-125" style="edgeStyle=orthogonalEdgeStyle;rounded=0;orthogonalLoop=1;jettySize=auto;html=1;entryX=1;entryY=0.5;entryDx=0;entryDy=0;" edge="1" parent="1" source="6ur_eUY4bLG5nfG0MfKk-106" target="6ur_eUY4bLG5nfG0MfKk-102">
          <mxGeometry relative="1" as="geometry">
            <Array as="points">
              <mxPoint x="300" y="549" />
              <mxPoint x="300" y="490" />
              <mxPoint x="510" y="490" />
              <mxPoint x="510" y="401" />
            </Array>
          </mxGeometry>
        </mxCell>
        <mxCell id="6ur_eUY4bLG5nfG0MfKk-126" style="edgeStyle=orthogonalEdgeStyle;rounded=0;orthogonalLoop=1;jettySize=auto;html=1;entryX=0;entryY=0.5;entryDx=0;entryDy=0;" edge="1" parent="1" source="6ur_eUY4bLG5nfG0MfKk-119" target="6ur_eUY4bLG5nfG0MfKk-112">
          <mxGeometry relative="1" as="geometry">
            <mxPoint x="80" y="470" as="targetPoint" />
          </mxGeometry>
        </mxCell>
        <mxCell id="6ur_eUY4bLG5nfG0MfKk-127" value="&#xa;&lt;span style=&quot;font-size: 14pt; line-height: 115%; color: rgb(73, 73, 73);&quot;&gt;Работник деканата&lt;/span&gt;&#xa;&#xa;&#xa;&#xa;" style="rounded=0;whiteSpace=wrap;html=1;fontFamily=Times New Roman;fontStyle=1" vertex="1" parent="1">
          <mxGeometry x="680" y="490" width="210" height="240" as="geometry" />
        </mxCell>
        <mxCell id="6ur_eUY4bLG5nfG0MfKk-128" value="" style="endArrow=classic;html=1;rounded=0;align=center;fontFamily=Times New Roman;fontStyle=1" edge="1" parent="1">
          <mxGeometry width="50" height="50" relative="1" as="geometry">
            <mxPoint x="770" y="400" as="sourcePoint" />
            <mxPoint x="769" y="490" as="targetPoint" />
          </mxGeometry>
        </mxCell>
        <mxCell id="6ur_eUY4bLG5nfG0MfKk-129" value="" style="endArrow=classic;html=1;rounded=0;align=center;fontFamily=Times New Roman;fontStyle=1" edge="1" parent="1">
          <mxGeometry width="50" height="50" relative="1" as="geometry">
            <mxPoint x="850" y="370" as="sourcePoint" />
            <mxPoint x="850" y="490" as="targetPoint" />
          </mxGeometry>
        </mxCell>
        <mxCell id="6ur_eUY4bLG5nfG0MfKk-130" value="" style="endArrow=classic;html=1;rounded=0;align=center;entryX=-0.013;entryY=0.167;entryDx=0;entryDy=0;entryPerimeter=0;" edge="1" parent="1" target="6ur_eUY4bLG5nfG0MfKk-127">
          <mxGeometry width="50" height="50" relative="1" as="geometry">
            <mxPoint x="570" y="530" as="sourcePoint" />
            <mxPoint x="730" y="520" as="targetPoint" />
          </mxGeometry>
        </mxCell>
        <mxCell id="6ur_eUY4bLG5nfG0MfKk-131" value="" style="endArrow=classic;html=1;rounded=0;align=center;entryX=0;entryY=0.25;entryDx=0;entryDy=0;" edge="1" parent="1">
          <mxGeometry width="50" height="50" relative="1" as="geometry">
            <mxPoint x="540" y="610" as="sourcePoint" />
            <mxPoint x="680" y="609" as="targetPoint" />
          </mxGeometry>
        </mxCell>
        <mxCell id="6ur_eUY4bLG5nfG0MfKk-132" value="" style="endArrow=classic;html=1;rounded=0;align=center;fontFamily=Times New Roman;fontStyle=1" edge="1" parent="1">
          <mxGeometry width="50" height="50" relative="1" as="geometry">
            <mxPoint x="890" y="533" as="sourcePoint" />
            <mxPoint x="1010" y="533" as="targetPoint" />
          </mxGeometry>
        </mxCell>
        <mxCell id="6ur_eUY4bLG5nfG0MfKk-133" value="" style="endArrow=classic;html=1;rounded=0;align=center;fontFamily=Times New Roman;fontStyle=1;entryX=0.613;entryY=0.991;entryDx=0;entryDy=0;entryPerimeter=0;" edge="1" parent="1" target="6ur_eUY4bLG5nfG0MfKk-127">
          <mxGeometry width="50" height="50" relative="1" as="geometry">
            <mxPoint x="809" y="830" as="sourcePoint" />
            <mxPoint x="810" y="740" as="targetPoint" />
          </mxGeometry>
        </mxCell>
        <mxCell id="6ur_eUY4bLG5nfG0MfKk-134" value="" style="endArrow=classic;html=1;rounded=0;align=center;exitX=1;exitY=0.25;exitDx=0;exitDy=0;fontFamily=Times New Roman;fontStyle=1" edge="1" parent="1">
          <mxGeometry width="50" height="50" relative="1" as="geometry">
            <mxPoint x="890" y="560" as="sourcePoint" />
            <mxPoint x="950" y="560" as="targetPoint" />
            <Array as="points" />
          </mxGeometry>
        </mxCell>
        <mxCell id="6ur_eUY4bLG5nfG0MfKk-135" value="" style="endArrow=classic;html=1;rounded=0;align=center;exitX=1;exitY=0.25;exitDx=0;exitDy=0;fontFamily=Times New Roman;fontStyle=1" edge="1" parent="1">
          <mxGeometry width="50" height="50" relative="1" as="geometry">
            <mxPoint x="890" y="510" as="sourcePoint" />
            <mxPoint x="1050" y="510" as="targetPoint" />
          </mxGeometry>
        </mxCell>
        <mxCell id="6ur_eUY4bLG5nfG0MfKk-136" value="" style="endArrow=classic;html=1;rounded=0;align=center;exitX=1;exitY=0.25;exitDx=0;exitDy=0;fontFamily=Times New Roman;fontStyle=1;" edge="1" parent="1">
          <mxGeometry width="50" height="50" relative="1" as="geometry">
            <mxPoint x="890" y="630" as="sourcePoint" />
            <mxPoint x="1100" y="630" as="targetPoint" />
          </mxGeometry>
        </mxCell>
        <mxCell id="6ur_eUY4bLG5nfG0MfKk-137" value="" style="endArrow=classic;html=1;rounded=0;align=center;exitX=1;exitY=0.25;exitDx=0;exitDy=0;fontFamily=Times New Roman;fontStyle=1" edge="1" parent="1">
          <mxGeometry width="50" height="50" relative="1" as="geometry">
            <mxPoint x="890" y="694.41" as="sourcePoint" />
            <mxPoint x="1050" y="694.41" as="targetPoint" />
          </mxGeometry>
        </mxCell>
        <mxCell id="6ur_eUY4bLG5nfG0MfKk-138" value="" style="endArrow=classic;html=1;rounded=0;align=center;exitX=1;exitY=0.25;exitDx=0;exitDy=0;fontFamily=Times New Roman;fontStyle=1" edge="1" parent="1">
          <mxGeometry width="50" height="50" relative="1" as="geometry">
            <mxPoint x="520" y="673" as="sourcePoint" />
            <mxPoint x="680" y="673" as="targetPoint" />
          </mxGeometry>
        </mxCell>
        <mxCell id="6ur_eUY4bLG5nfG0MfKk-139" value="" style="endArrow=classic;html=1;rounded=0;align=center;exitX=1;exitY=0.25;exitDx=0;exitDy=0;fontFamily=Times New Roman;fontStyle=1" edge="1" parent="1">
          <mxGeometry width="50" height="50" relative="1" as="geometry">
            <mxPoint x="890" y="600" as="sourcePoint" />
            <mxPoint x="1050" y="600" as="targetPoint" />
          </mxGeometry>
        </mxCell>
        <mxCell id="6ur_eUY4bLG5nfG0MfKk-140" value="&lt;span style=&quot;line-height: 115%; color: rgb(73, 73, 73);&quot;&gt;&lt;font style=&quot;font-size: 11px;&quot;&gt;Список студентов группы &amp;nbsp;Список предметов&amp;nbsp; Ведомости&amp;nbsp;&lt;/font&gt;&lt;/span&gt;" style="text;html=1;whiteSpace=wrap;strokeColor=none;fillColor=none;align=center;verticalAlign=middle;rounded=0;fontFamily=Times New Roman;fontStyle=1" vertex="1" parent="1">
          <mxGeometry x="1050" y="490" width="220" height="30" as="geometry" />
        </mxCell>
        <mxCell id="6ur_eUY4bLG5nfG0MfKk-141" value="&lt;span style=&quot;line-height: 115%; color: rgb(73, 73, 73);&quot;&gt;&lt;font style=&quot;font-size: 11px;&quot;&gt;Ввод данных в ИС&amp;nbsp;&amp;nbsp;&lt;/font&gt;&lt;/span&gt;" style="text;html=1;whiteSpace=wrap;strokeColor=none;fillColor=none;align=center;verticalAlign=middle;rounded=0;fontFamily=Times New Roman;fontStyle=1" vertex="1" parent="1">
          <mxGeometry x="1000" y="520" width="140" height="30" as="geometry" />
        </mxCell>
        <mxCell id="6ur_eUY4bLG5nfG0MfKk-142" value="&lt;span style=&quot;line-height: 115%; color: rgb(73, 73, 73);&quot;&gt;&lt;font style=&quot;font-size: 11px;&quot;&gt;(ввод данных) и студентов&lt;br&gt;(просмотр успеваемости)&lt;/font&gt;&lt;/span&gt;" style="text;html=1;whiteSpace=wrap;strokeColor=none;fillColor=none;align=center;verticalAlign=middle;rounded=0;fontFamily=Times New Roman;fontStyle=1" vertex="1" parent="1">
          <mxGeometry x="900" y="550" width="260" height="30" as="geometry" />
        </mxCell>
        <mxCell id="6ur_eUY4bLG5nfG0MfKk-143" value="&lt;span style=&quot;line-height: 115%; color: rgb(73, 73, 73);&quot;&gt;&lt;font style=&quot;font-size: 11px;&quot;&gt;получение информации&lt;/font&gt;&lt;/span&gt;" style="text;html=1;whiteSpace=wrap;strokeColor=none;fillColor=none;align=center;verticalAlign=middle;rounded=0;fontFamily=Times New Roman;fontStyle=1" vertex="1" parent="1">
          <mxGeometry x="1050" y="590" width="140" height="30" as="geometry" />
        </mxCell>
        <mxCell id="6ur_eUY4bLG5nfG0MfKk-144" value="&lt;span style=&quot;line-height: 115%; color: rgb(73, 73, 73);&quot;&gt;&lt;font style=&quot;font-size: 11px;&quot;&gt;Ввод данных: после каждой&lt;br&gt;сессии, по мере поступления&amp;nbsp;&lt;/font&gt;&lt;/span&gt;" style="text;html=1;whiteSpace=wrap;strokeColor=none;fillColor=none;align=center;verticalAlign=middle;rounded=0;fontFamily=Times New Roman;fontStyle=1" vertex="1" parent="1">
          <mxGeometry x="1080" y="620" width="220" height="30" as="geometry" />
        </mxCell>
        <mxCell id="6ur_eUY4bLG5nfG0MfKk-145" value="&lt;span style=&quot;line-height: 115%; color: rgb(73, 73, 73);&quot;&gt;&lt;font face=&quot;Times New Roman&quot; style=&quot;font-size: 11px;&quot;&gt;Обеспечение точного и&lt;br&gt;своевременного учета успеваемости&amp;nbsp;&lt;/font&gt;&lt;/span&gt;&lt;span style=&quot;font-size: 14pt; line-height: 115%; color: rgb(73, 73, 73);&quot;&gt;&amp;nbsp;&lt;/span&gt;" style="text;html=1;whiteSpace=wrap;strokeColor=none;fillColor=none;align=center;verticalAlign=middle;rounded=0;" vertex="1" parent="1">
          <mxGeometry x="1055" y="680" width="130" height="30" as="geometry" />
        </mxCell>
        <mxCell id="6ur_eUY4bLG5nfG0MfKk-146" value="&lt;span style=&quot;font-size:14.0pt;line-height:115%;&lt;br/&gt;font-family:&amp;quot;Times New Roman&amp;quot;,&amp;quot;serif&amp;quot;;mso-fareast-font-family:Calibri;&lt;br/&gt;mso-fareast-theme-font:minor-latin;mso-ansi-language:RU;mso-fareast-language:&lt;br/&gt;EN-US;mso-bidi-language:AR-SA&quot;&gt;Данные&lt;/span&gt;" style="text;html=1;whiteSpace=wrap;strokeColor=none;fillColor=none;align=center;verticalAlign=middle;rounded=0;" vertex="1" parent="1">
          <mxGeometry x="740" y="350" width="60" height="30" as="geometry" />
        </mxCell>
        <mxCell id="6ur_eUY4bLG5nfG0MfKk-147" value="&lt;span style=&quot;font-size:14.0pt;line-height:115%;&lt;br/&gt;font-family:&amp;quot;Times New Roman&amp;quot;,&amp;quot;serif&amp;quot;;mso-fareast-font-family:Calibri;&lt;br/&gt;mso-fareast-theme-font:minor-latin;mso-ansi-language:RU;mso-fareast-language:&lt;br/&gt;EN-US;mso-bidi-language:AR-SA&quot;&gt;Время&lt;/span&gt;" style="text;html=1;whiteSpace=wrap;strokeColor=none;fillColor=none;align=center;verticalAlign=middle;rounded=0;" vertex="1" parent="1">
          <mxGeometry x="820" y="330" width="60" height="30" as="geometry" />
        </mxCell>
        <mxCell id="6ur_eUY4bLG5nfG0MfKk-148" value="&lt;span style=&quot;font-size:14.0pt;line-height:115%;&#xa;font-family:&amp;quot;Times New Roman&amp;quot;,&amp;quot;serif&amp;quot;;mso-fareast-font-family:Calibri;&#xa;mso-fareast-theme-font:minor-latin;mso-ansi-language:RU;mso-fareast-language:&#xa;EN-US;mso-bidi-language:AR-SA&quot;&gt;Функции&lt;/span&gt;" style="text;whiteSpace=wrap;html=1;" vertex="1" parent="1">
          <mxGeometry x="480" y="510" width="110" height="40" as="geometry" />
        </mxCell>
        <mxCell id="6ur_eUY4bLG5nfG0MfKk-149" value="&lt;span style=&quot;font-size:14.0pt;line-height:115%;&#xa;font-family:&amp;quot;Times New Roman&amp;quot;,&amp;quot;serif&amp;quot;;mso-fareast-font-family:Calibri;&#xa;mso-fareast-theme-font:minor-latin;mso-ansi-language:RU;mso-fareast-language:&#xa;EN-US;mso-bidi-language:AR-SA&quot;&gt;Сети&lt;/span&gt;" style="text;whiteSpace=wrap;html=1;" vertex="1" parent="1">
          <mxGeometry x="470" y="440" width="80" height="190" as="geometry" />
        </mxCell>
        <mxCell id="6ur_eUY4bLG5nfG0MfKk-150" value="&lt;span style=&quot;font-size:14.0pt;line-height:115%;&#xa;font-family:&amp;quot;Times New Roman&amp;quot;,&amp;quot;serif&amp;quot;;mso-fareast-font-family:Calibri;&#xa;mso-fareast-theme-font:minor-latin;mso-ansi-language:RU;mso-fareast-language:&#xa;EN-US;mso-bidi-language:AR-SA&quot;&gt;Люди&lt;/span&gt;" style="text;whiteSpace=wrap;html=1;" vertex="1" parent="1">
          <mxGeometry x="460" y="655" width="80" height="40" as="geometry" />
        </mxCell>
        <mxCell id="6ur_eUY4bLG5nfG0MfKk-151" value="&lt;span style=&quot;font-size:14.0pt;line-height:115%;&amp;lt;br/&amp;gt;font-family:&amp;quot;Times New Roman&amp;quot;,&amp;quot;serif&amp;quot;;mso-fareast-font-family:Calibri;&amp;lt;br/&amp;gt;mso-fareast-theme-font:minor-latin;mso-ansi-language:RU;mso-fareast-language:&amp;lt;br/&amp;gt;EN-US;mso-bidi-language:AR-SA&quot;&gt;Мотивации&lt;/span&gt;" style="text;whiteSpace=wrap;html=1;" vertex="1" parent="1">
          <mxGeometry x="750" y="840" width="140" height="40" as="geometry" />
        </mxCell>
        <mxCell id="6ur_eUY4bLG5nfG0MfKk-102" value="&lt;ul style=&quot;margin: 0px 0px 14px 25px; padding: 0px; scrollbar-color: rgb(92, 114, 101) transparent; box-sizing: inherit; display: flex; flex-direction: column; color: rgb(73, 73, 73); font-family: &amp;quot;Fira Sans&amp;quot;, serif; font-size: 16px; white-space-collapse: break-spaces; background-color: rgb(244, 244, 231);&quot;&gt;&lt;li style=&quot;margin: 0px; padding: 0px; scrollbar-color: rgb(92, 114, 101) transparent; box-sizing: inherit;&quot;&gt;ID группы&lt;/li&gt;&lt;/ul&gt;" style="text;strokeColor=none;fillColor=none;align=left;verticalAlign=top;spacingLeft=4;spacingRight=4;overflow=hidden;rotatable=0;points=[[0,0.5],[1,0.5]];portConstraint=eastwest;whiteSpace=wrap;html=1;" vertex="1" parent="1">
          <mxGeometry x="800" y="910" width="176" height="26" as="geometry" />
        </mxCell>
      </root>
    </mxGraphModel>
  </diagram>
</mxfile>
